<svg width="15" height="14" viewBox="0 0 15 14" fill="none" xmlns="http://www.w3.org/2000/svg">
<path d="M14.4201 9.69424H5.11537L5.58256 8.74268L13.3451 8.72861C13.6076 8.72861 13.8326 8.54111 13.8794 8.28174L14.9544 2.26455C14.9826 2.10674 14.9404 1.94424 14.8372 1.8208C14.7863 1.76005 14.7227 1.71112 14.6509 1.67739C14.5792 1.64366 14.5009 1.62595 14.4216 1.62549L4.54662 1.59268L4.46224 1.1958C4.40912 0.942676 4.18099 0.758301 3.92162 0.758301H1.50756C1.36127 0.758301 1.22098 0.816412 1.11754 0.91985C1.0141 1.02329 0.955994 1.16358 0.955994 1.30986C0.955994 1.45615 1.0141 1.59644 1.11754 1.69988C1.22098 1.80331 1.36127 1.86143 1.50756 1.86143H3.47474L3.84349 3.61455L4.75131 8.00986L3.58256 9.91768C3.52186 9.9996 3.4853 10.0969 3.47702 10.1985C3.46874 10.3001 3.48906 10.402 3.53568 10.4927C3.62943 10.6786 3.81849 10.7958 4.02787 10.7958H5.00912C4.79993 11.0736 4.68694 11.4121 4.68724 11.7599C4.68724 12.6442 5.40599 13.363 6.29037 13.363C7.17474 13.363 7.89349 12.6442 7.89349 11.7599C7.89349 11.4114 7.77787 11.0724 7.57162 10.7958H10.0888C9.87962 11.0736 9.76662 11.4121 9.76693 11.7599C9.76693 12.6442 10.4857 13.363 11.3701 13.363C12.2544 13.363 12.9732 12.6442 12.9732 11.7599C12.9732 11.4114 12.8576 11.0724 12.6513 10.7958H14.4216C14.7247 10.7958 14.9732 10.5489 14.9732 10.2442C14.9723 10.0981 14.9136 9.95827 14.81 9.85523C14.7064 9.75219 14.5662 9.69432 14.4201 9.69424V9.69424ZM4.77631 2.68018L13.7732 2.70986L12.8919 7.64424L5.82474 7.65674L4.77631 2.68018ZM6.29037 12.2536C6.01849 12.2536 5.79662 12.0317 5.79662 11.7599C5.79662 11.488 6.01849 11.2661 6.29037 11.2661C6.56224 11.2661 6.78412 11.488 6.78412 11.7599C6.78412 11.8908 6.7321 12.0164 6.6395 12.109C6.54691 12.2016 6.42132 12.2536 6.29037 12.2536V12.2536ZM11.3701 12.2536C11.0982 12.2536 10.8763 12.0317 10.8763 11.7599C10.8763 11.488 11.0982 11.2661 11.3701 11.2661C11.6419 11.2661 11.8638 11.488 11.8638 11.7599C11.8638 11.8908 11.8118 12.0164 11.7192 12.109C11.6266 12.2016 11.501 12.2536 11.3701 12.2536V12.2536Z" fill="white"/>
</svg>
